<?xml version="1.0" standalone="no"?>
<!DOCTYPE svg PUBLIC "-//W3C//DTD SVG 20010904//EN"
 "http://www.w3.org/TR/2001/REC-SVG-20010904/DTD/svg10.dtd">
<svg version="1.0" xmlns="http://www.w3.org/2000/svg"
 width="501.000000pt" height="501.000000pt" viewBox="0 0 501.000000 501.000000"
 preserveAspectRatio="xMidYMid meet">

<g transform="translate(0.000000,501.000000) scale(0.100000,-0.100000)"
fill="#000000" stroke="none">
<path d="M2330 5003 c-605 -44 -1169 -301 -1595 -728 -388 -387 -632 -879
-712 -1430 -23 -165 -23 -505 0 -670 149 -1031 896 -1856 1897 -2094 211 -50
341 -65 580 -65 232 0 372 15 557 59 l102 24 72 -24 c40 -14 123 -35 183 -46
95 -18 135 -21 286 -16 146 4 191 9 275 31 263 69 463 185 647 374 195 201
318 445 364 721 33 203 6 500 -61 668 -15 38 -15 45 4 119 71 283 87 622 45
926 -148 1073 -982 1936 -2044 2118 -199 34 -419 46 -600 33z m511 -213 c293
-43 575 -143 838 -299 532 -317 913 -831 1060 -1433 45 -186 64 -339 64 -538
1 -162 -18 -386 -32 -395 -4 -2 -35 32 -71 76 l-63 79 -2 233 c-1 191 -5 253
-23 352 -43 232 -110 435 -210 628 -58 113 -183 301 -262 395 l-63 74 -63 -63
c-35 -35 -64 -67 -64 -72 0 -5 27 -41 59 -81 95 -116 168 -231 242 -381 104
-211 162 -410 189 -640 12 -105 13 -275 3 -275 -5 0 -28 14 -53 31 -64 43
-203 112 -288 143 -227 81 -531 96 -764 37 -40 -11 -75 -17 -77 -15 -2 2 4 13
14 24 10 11 16 22 14 24 -2 2 -110 -58 -239 -135 -129 -76 -306 -180 -392
-231 l-158 -93 0 -88 c0 -86 -1 -90 -55 -200 -66 -134 -110 -299 -127 -470 -9
-83 -16 -117 -25 -117 -10 0 -13 -40 -13 -185 l0 -185 39 0 38 0 28 -77 c32
-90 105 -239 146 -300 16 -23 29 -44 29 -47 0 -10 -154 -7 -258 5 -386 42
-755 197 -1046 439 l-71 59 -65 -64 -64 -64 24 -27 c14 -15 65 -57 113 -95
394 -306 903 -468 1399 -445 93 4 139 3 143 -5 4 -6 40 -37 81 -69 71 -56 73
-59 46 -64 -144 -29 -465 -35 -648 -11 -776 102 -1438 575 -1779 1270 -156
318 -223 593 -232 951 -8 300 24 527 113 793 165 493 496 921 937 1209 164
107 415 221 608 277 320 92 642 113 980 65z m1046 -2314 c231 -50 424 -158
590 -329 96 -99 152 -175 202 -274 l31 -63 -232 0 -232 0 -167 -173 -166 -172
-168 173 c-141 145 -171 172 -196 172 -35 0 -35 -4 -8 -71 27 -71 100 -332 93
-338 -2 -3 -7 5 -11 17 -9 38 -18 24 -21 -33 -3 -47 0 -58 20 -77 13 -13 34
-36 46 -52 26 -34 29 -16 7 37 -18 43 -19 50 -4 41 21 -13 90 -173 104 -242 8
-37 17 -107 21 -155 l7 -88 51 50 c54 53 70 60 83 37 4 -8 82 -89 171 -180
l164 -166 121 0 121 0 -44 -46 c-57 -59 -182 -153 -266 -200 -89 -50 -238
-101 -347 -120 -157 -28 -495 -7 -481 30 2 6 -7 24 -19 40 l-24 29 -34 -26
-34 -26 -93 44 c-131 62 -224 127 -322 225 -361 360 -442 898 -203 1351 47 89
48 91 79 86 41 -7 44 -3 32 40 -12 44 11 76 48 67 22 -6 23 -4 18 25 -9 41 2
39 20 -4 14 -32 69 -69 88 -58 4 2 0 24 -9 49 -12 35 -23 48 -44 56 -30 10
-30 31 -1 26 11 -2 16 3 14 15 -5 27 15 20 22 -9 6 -23 55 -54 85 -54 16 0
-20 90 -40 101 -19 10 -19 11 3 29 23 18 23 18 28 -3 5 -20 86 -75 96 -65 9
10 -20 74 -43 94 l-25 22 63 35 c134 75 260 120 403 143 100 17 304 11 403
-10z m883 -847 c16 -61 23 -125 27 -234 6 -164 -7 -259 -52 -404 -26 -81 -105
-243 -121 -248 -10 -3 -459 454 -459 468 0 4 104 114 231 246 126 131 250 260
274 286 l44 49 17 -39 c9 -22 27 -77 39 -124z"/>
<path d="M2281 4639 c-329 -35 -685 -163 -961 -346 -120 -79 -255 -189 -255
-207 0 -7 28 -39 63 -71 l63 -58 24 19 c183 148 298 223 450 295 685 323 1483
226 2071 -253 l81 -66 63 63 c34 34 61 67 59 73 -7 19 -154 136 -259 205 -406
269 -919 396 -1399 346z"/>
<path d="M2500 3715 l0 -480 -396 -179 c-217 -99 -397 -183 -399 -186 -3 -4
176 -114 396 -244 l400 -236 400 236 c272 161 398 241 395 250 -7 18 -776
1296 -787 1309 -5 5 -9 -204 -9 -470z"/>
<path d="M882 3906 c-59 -64 -152 -192 -212 -291 -449 -743 -404 -1692 113
-2381 41 -54 90 -116 109 -138 l34 -39 62 68 c34 37 62 71 62 74 0 4 -25 36
-55 73 -589 709 -591 1743 -6 2468 33 41 61 77 61 80 0 3 -28 34 -63 68 l-64
63 -41 -45z"/>
<path d="M1869 1268 c-17 -57 -34 -106 -38 -111 -4 -4 -21 39 -37 95 l-30 103
-53 3 -53 3 7 -31 c4 -17 30 -101 59 -188 l53 -157 41 -3 c48 -4 53 3 96 136
15 45 29 82 31 82 2 0 18 -44 36 -97 17 -54 36 -104 42 -111 6 -8 26 -12 51
-10 l40 3 58 175 c31 96 57 181 58 188 0 8 -16 12 -50 12 l-49 0 -34 -107 -33
-108 -38 113 -38 112 -44 0 -43 0 -32 -102z"/>
<path d="M3094 2233 c13 -51 31 -75 74 -101 l43 -25 -6 29 c-10 41 -35 74 -79
102 l-39 24 7 -29z"/>
<path d="M3026 2148 c11 -33 24 -48 56 -66 23 -12 43 -20 46 -17 3 2 -3 24
-12 48 -12 32 -26 48 -51 60 -51 24 -55 22 -39 -25z"/>
<path d="M3220 2143 c4 -16 11 -35 14 -44 8 -19 95 -93 102 -86 13 12 -32 90
-71 122 -24 19 -46 35 -48 35 -3 0 -2 -12 3 -27z"/>
<path d="M2768 2065 c-3 -3 0 -25 7 -48 12 -42 41 -67 78 -67 20 0 20 1 5 53
-9 30 -20 43 -45 53 -37 16 -38 16 -45 9z"/>
<path d="M3060 2054 c0 -35 29 -80 64 -98 20 -11 38 -17 41 -15 11 11 -21 82
-44 98 -40 27 -61 33 -61 15z"/>
<path d="M3255 2028 c18 -55 26 -67 70 -103 25 -21 48 -36 50 -33 3 3 -2 22
-11 44 -15 37 -56 81 -97 105 -17 9 -18 8 -12 -13z"/>
<path d="M3350 2043 c0 -27 24 -70 72 -130 28 -34 54 -61 56 -58 3 2 -7 28
-22 57 -27 55 -105 152 -106 131z"/>
<path d="M2870 2025 c0 -53 47 -105 95 -105 20 0 -3 78 -29 95 -38 24 -66 28
-66 10z"/>
<path d="M3170 2001 c0 -35 34 -89 72 -113 24 -15 44 -26 45 -24 7 7 -21 79
-37 94 -29 27 -80 54 -80 43z"/>
<path d="M2980 1984 c0 -37 30 -84 62 -97 43 -18 49 -14 36 26 -14 42 -34 63
-69 76 -23 8 -29 7 -29 -5z"/>
<path d="M3102 1908 c15 -45 25 -56 71 -79 l39 -20 -7 23 c-16 57 -28 76 -61
91 -49 24 -55 22 -42 -15z"/>
<path d="M3390 1915 c0 -29 23 -68 67 -115 21 -23 42 -49 46 -58 5 -10 -8 2
-28 26 -20 23 -40 42 -45 42 -21 0 20 -79 67 -131 29 -31 53 -60 53 -64 0 -4
-18 12 -39 36 -21 24 -42 41 -46 37 -13 -13 34 -93 85 -143 l50 -49 -55 164
c-51 150 -60 170 -105 220 -38 42 -49 50 -50 35z"/>
<path d="M3300 1893 c4 -16 11 -35 14 -43 7 -14 87 -80 99 -80 18 0 -23 77
-60 110 -51 47 -65 51 -53 13z"/>
<path d="M3216 1858 c17 -56 26 -69 65 -93 22 -15 43 -25 45 -23 2 2 -2 21 -8
42 -8 26 -25 49 -52 67 -47 35 -60 36 -50 7z"/>
<path d="M3330 1795 c0 -24 38 -89 63 -108 58 -43 60 -43 52 -6 -7 40 -115
146 -115 114z"/>
<path d="M3577 1242 c-14 -41 -14 -49 -2 -61 20 -20 25 -12 32 46 7 67 -10 76
-30 15z"/>
<path d="M3615 1196 c-4 -30 -4 -59 0 -65 12 -20 24 -11 28 22 3 25 4 22 5
-14 1 -28 8 -52 17 -59 26 -21 21 100 -5 130 -11 13 -20 27 -20 32 0 4 -4 8
-9 8 -5 0 -13 -24 -16 -54z"/>
<path d="M3690 1113 c0 -54 4 -74 17 -84 15 -13 16 -8 9 61 -9 100 -26 115
-26 23z"/>
<path d="M3544 1148 c-27 -36 -38 -70 -28 -86 18 -28 33 -24 49 14 18 44 18
46 2 68 -11 14 -15 15 -23 4z"/>
<path d="M3581 1078 c-21 -57 -21 -65 -2 -82 21 -19 25 -16 39 35 15 56 -18
97 -37 47z"/>
<path d="M3636 1041 c-3 -5 -9 -29 -12 -53 -5 -34 -2 -47 10 -57 22 -18 26
-13 32 45 5 38 3 53 -9 62 -9 8 -18 9 -21 3z"/>
<path d="M3467 1011 c-22 -37 -21 -54 2 -75 19 -17 20 -16 41 24 20 40 21 43
4 61 -23 25 -27 24 -47 -10z"/>
<path d="M3687 993 c-3 -5 -9 -32 -12 -59 -6 -40 -4 -53 9 -63 21 -18 24 -15
31 44 5 36 2 55 -8 69 -8 10 -17 15 -20 9z"/>
<path d="M3527 945 c-22 -46 -21 -58 2 -79 19 -18 20 -17 35 19 20 48 20 58
-2 78 -17 16 -19 15 -35 -18z"/>
<path d="M3401 912 c-26 -37 -26 -54 -2 -76 18 -16 20 -16 40 12 26 37 26 54
2 76 -18 16 -20 16 -40 -12z"/>
<path d="M3584 875 c-17 -46 -17 -47 4 -68 l21 -21 16 38 c17 39 14 66 -9 86
-11 9 -18 2 -32 -35z"/>
<path d="M3473 848 c-31 -39 -34 -58 -14 -79 23 -24 35 -20 57 23 14 27 14 31
-2 49 -20 22 -28 24 -41 7z"/>
<path d="M3641 805 c-12 -41 -12 -48 5 -66 21 -23 29 -17 42 33 8 28 7 41 -5
57 -21 30 -27 26 -42 -24z"/>
<path d="M3321 811 c-25 -35 -25 -36 -4 -61 23 -26 34 -25 57 7 17 23 18 29 5
51 -20 36 -34 37 -58 3z"/>
<path d="M3526 756 c-17 -32 -17 -35 -1 -60 10 -14 21 -26 25 -26 4 0 15 18
25 40 17 39 17 41 0 60 -24 27 -27 26 -49 -14z"/>
<path d="M3390 730 c-21 -29 -21 -32 -6 -55 22 -33 38 -31 59 5 17 28 17 31 1
55 -21 32 -28 32 -54 -5z"/>
<path d="M3244 726 c-26 -21 -27 -26 -16 -50 17 -37 38 -42 62 -15 24 30 24
35 1 65 l-19 25 -28 -25z"/>
<path d="M3595 690 c-20 -39 -19 -53 6 -76 17 -16 22 -16 30 -4 18 29 21 62 9
86 -17 31 -26 30 -45 -6z"/>
<path d="M3460 650 c-21 -29 -21 -30 -3 -55 24 -32 35 -31 56 4 21 36 21 33
-2 59 -24 28 -26 28 -51 -8z"/>
<path d="M3151 636 c-22 -23 -22 -25 -6 -50 22 -32 35 -33 65 -1 l23 25 -23
25 c-29 31 -31 31 -59 1z"/>
<path d="M3311 636 c-22 -23 -22 -25 -6 -50 22 -32 35 -33 65 -1 l23 25 -23
25 c-29 31 -31 31 -59 1z"/>
<path d="M3387 552 l-26 -27 23 -30 c21 -26 26 -28 40 -16 32 27 38 49 20 76
-21 31 -24 31 -57 -3z"/>
<path d="M3461 470 l-22 -31 22 -31 22 -31 24 29 c27 35 28 38 7 69 -21 32
-26 31 -53 -5z"/>
<path d="M3131 471 l-24 -18 22 -32 c12 -17 25 -31 29 -31 4 0 20 11 36 23
l29 24 -19 26 c-23 31 -40 33 -73 8z"/>
<path d="M3302 463 c-24 -25 -20 -46 13 -73 13 -11 19 -9 40 10 30 28 30 38 6
68 -23 27 -30 27 -59 -5z"/>
<path d="M3380 375 c-24 -25 -23 -30 16 -71 11 -13 27 -4 52 28 11 14 11 21
-3 42 -22 32 -35 33 -65 1z"/>
</g>
</svg>
